REM DIRINDEX 1\5,1\2\6,1\2\7,1\3\8,1\3\9,1\4\10,1\4\11,1\4\12
REM DIRNAME cjc026,folder01,folder02,folder03,folder04,folder05,folder06,folder07,folder08,folder09,folder10,folder11
TITLE ""
FILE "EJE_DB3000_5th_2A_46.mp3" MP3
  TRACK 01 AUDIO
    TITLE "0:"
    INDEX 01 00:00:00
  TRACK 02 AUDIO
    TITLE "10:cjc026_08115"
    INDEX 01 00:00:08
  TRACK 03 AUDIO
    TITLE "0:"
    INDEX 01 00:01:46
  TRACK 04 AUDIO
    TITLE "11:cjc026_08116"
    INDEX 01 00:02:09
  TRACK 05 AUDIO
    TITLE "0:"
    INDEX 01 00:03:61
  TRACK 06 AUDIO
    TITLE "12:cjc026_08117"
    INDEX 01 00:04:21
  TRACK 07 AUDIO
    TITLE "0:"
    INDEX 01 00:05:59
  TRACK 08 AUDIO
    TITLE "10:cjc026_08118"
    INDEX 01 00:06:22
  TRACK 09 AUDIO
    TITLE "0:"
    INDEX 01 00:07:36
  TRACK 10 AUDIO
    TITLE "11:cjc026_08119"
    INDEX 01 00:07:71
  TRACK 11 AUDIO
    TITLE "0:"
    INDEX 01 00:09:21
  TRACK 12 AUDIO
    TITLE "12:cjc026_08120"
    INDEX 01 00:09:56
  TRACK 13 AUDIO
    TITLE "0:"
    INDEX 01 00:10:70
  TRACK 14 AUDIO
    TITLE "10:cjc026_08121"
    INDEX 01 00:11:30
  TRACK 15 AUDIO
    TITLE "0:"
    INDEX 01 00:13:10
  TRACK 16 AUDIO
    TITLE "11:cjc026_08122"
    INDEX 01 00:13:48
  TRACK 17 AUDIO
    TITLE "0:"
    INDEX 01 00:14:70
  TRACK 18 AUDIO
    TITLE "12:cjc026_08123"
    INDEX 01 00:15:27
  TRACK 19 AUDIO
    TITLE "0:"
    INDEX 01 00:17:10
  TRACK 20 AUDIO
    TITLE "10:cjc026_08124"
    INDEX 01 00:17:48
  TRACK 21 AUDIO
    TITLE "0:"
    INDEX 01 00:19:22
  TRACK 22 AUDIO
    TITLE "11:cjc026_08125"
    INDEX 01 00:19:62
  TRACK 23 AUDIO
    TITLE "0:"
    INDEX 01 00:21:28
  TRACK 24 AUDIO
    TITLE "12:cjc026_08126"
    INDEX 01 00:21:66
  TRACK 25 AUDIO
    TITLE "0:"
    INDEX 01 00:23:43
  TRACK 26 AUDIO
    TITLE "10:cjc026_08127"
    INDEX 01 00:24:06
  TRACK 27 AUDIO
    TITLE "0:"
    INDEX 01 00:25:20
  TRACK 28 AUDIO
    TITLE "11:cjc026_08128"
    INDEX 01 00:25:58
  TRACK 29 AUDIO
    TITLE "0:"
    INDEX 01 00:27:10
  TRACK 30 AUDIO
    TITLE "12:cjc026_08129"
    INDEX 01 00:27:45
  TRACK 31 AUDIO
    TITLE "0:"
    INDEX 01 00:28:60
  TRACK 32 AUDIO
    TITLE "10:cjc026_08130"
    INDEX 01 00:29:22
  TRACK 33 AUDIO
    TITLE "0:"
    INDEX 01 00:30:50
  TRACK 34 AUDIO
    TITLE "11:cjc026_08131"
    INDEX 01 00:31:10
  TRACK 35 AUDIO
    TITLE "0:"
    INDEX 01 00:32:46
  TRACK 36 AUDIO
    TITLE "12:cjc026_08132"
    INDEX 01 00:33:06
  TRACK 37 AUDIO
    TITLE "0:"
    INDEX 01 00:34:31
  TRACK 38 AUDIO
    TITLE "10:cjc026_08133"
    INDEX 01 00:34:69
  TRACK 39 AUDIO
    TITLE "0:"
    INDEX 01 00:36:27
  TRACK 40 AUDIO
    TITLE "11:cjc026_08134"
    INDEX 01 00:36:64
  TRACK 41 AUDIO
    TITLE "0:"
    INDEX 01 00:38:33
  TRACK 42 AUDIO
    TITLE "12:cjc026_08135"
    INDEX 01 00:38:68
  TRACK 43 AUDIO
    TITLE "0:"
    INDEX 01 00:40:26
  TRACK 44 AUDIO
    TITLE "10:cjc026_08136"
    INDEX 01 00:40:67
  TRACK 45 AUDIO
    TITLE "0:"
    INDEX 01 00:42:06
  TRACK 46 AUDIO
    TITLE "11:cjc026_08137"
    INDEX 01 00:42:44
  TRACK 47 AUDIO
    TITLE "0:"
    INDEX 01 00:44:72
  TRACK 48 AUDIO
    TITLE "12:cjc026_08138"
    INDEX 01 00:45:35
  TRACK 49 AUDIO
    TITLE "0:"
    INDEX 01 00:46:46
  TRACK 50 AUDIO
    TITLE "10:cjc026_08139"
    INDEX 01 00:47:12
  TRACK 51 AUDIO
    TITLE "0:"
    INDEX 01 00:48:23
  TRACK 52 AUDIO
    TITLE "11:cjc026_08140"
    INDEX 01 00:48:61
  TRACK 53 AUDIO
    TITLE "0:"
    INDEX 01 00:51:06
  TRACK 54 AUDIO
    TITLE "12:cjc026_08141"
    INDEX 01 00:51:41
  TRACK 55 AUDIO
    TITLE "0:"
    INDEX 01 00:52:52
  TRACK 56 AUDIO
    TITLE "10:cjc026_08142"
    INDEX 01 00:53:15
  TRACK 57 AUDIO
    TITLE "0:"
    INDEX 01 00:54:43
  TRACK 58 AUDIO
    TITLE "11:cjc026_08143"
    INDEX 01 00:55:03
  TRACK 59 AUDIO
    TITLE "0:"
    INDEX 01 00:56:71
  TRACK 60 AUDIO
    TITLE "12:cjc026_08144"
    INDEX 01 00:57:31
  TRACK 61 AUDIO
    TITLE "0:"
    INDEX 01 00:58:56
  TRACK 62 AUDIO
    TITLE "10:cjc026_08145"
    INDEX 01 00:59:19
  TRACK 63 AUDIO
    TITLE "0:"
    INDEX 01 01:00:27
  TRACK 64 AUDIO
    TITLE "11:cjc026_08146"
    INDEX 01 01:00:63
  TRACK 65 AUDIO
    TITLE "0:"
    INDEX 01 01:02:07
  TRACK 66 AUDIO
    TITLE "12:cjc026_08147"
    INDEX 01 01:02:42
  TRACK 67 AUDIO
    TITLE "0:"
    INDEX 01 01:03:51
